<svg xmlns="http://www.w3.org/2000/svg" xmlns:xlink="http://www.w3.org/1999/xlink" version="1.1" x="0px" y="0px" viewBox="0 0 64 80" style="enable-background:new 0 0 64 64;" xml:space="preserve"><g><path d="M41,31h-2.8236c2.252-1.4552,3.981-3.6785,4.7629-6.3301h0.9807c0.9385,0,1.8184-0.3633,2.4863-1.0313   c0.6533-0.6694,1.0137-1.5464,1.0137-2.4688c0-1.9297-1.5703-3.5-3.5-3.5h-0.5v-3C43.4199,9.3379,39.082,5,33.75,5h-3.5   c-5.332,0-9.6699,4.3379-9.6699,9.6699v3h-0.5c-1.9297,0-3.5,1.5703-3.5,3.5c0,0.9224,0.3604,1.7993,1.0225,2.4771   c0.6592,0.6597,1.5391,1.0229,2.4775,1.0229h0.9819c0.7855,2.6541,2.5142,4.8759,4.7634,6.3301H23c-5.5137,0-10,4.4863-10,10   v8.6875V51v4c0,2.2061,1.7939,4,4,4h1h28h1c2.2061,0,4-1.7939,4-4v-4v-1v-9C51,35.4863,46.5137,31,41,31z M43.9199,19.6699   c0.8271,0,1.5,0.6729,1.5,1.5c0,0.397-0.1582,0.7773-0.4365,1.063c-0.2822,0.2817-0.6592,0.437-1.0635,0.437h-0.5681   c0.0444-0.407,0.0681-0.8242,0.0681-1.25v-1.75H43.9199z M30.25,7h3.5c3.8903,0,7.1098,2.9118,7.6014,6.6699H22.6486   C23.1402,9.9118,26.3597,7,30.25,7z M40.4488,15.6699l-0.856,1.1699c-0.3799,0.5195-0.9863,0.8301-1.623,0.8301H26.0303   c-0.6367,0-1.2432-0.3105-1.624-0.8301l-0.8556-1.1699H40.4488z M19.0254,22.2412c-0.2871-0.2939-0.4453-0.6743-0.4453-1.0713   c0-0.8271,0.6729-1.5,1.5-1.5h0.5v1.75c0,0.4265,0.0236,0.8443,0.0678,1.25h-0.5678   C19.6758,22.6699,19.2988,22.5146,19.0254,22.2412z M22.8037,23.4399c-0.1484-0.6274-0.2236-1.3071-0.2236-2.02v-3.6891   l0.2119,0.2897c0.7559,1.0327,1.9658,1.6494,3.2383,1.6494h11.9395c1.2725,0,2.4824-0.6167,3.2373-1.6494l0.2129-0.2909v3.6903   c0,0.7129-0.0752,1.3926-0.2266,2.0366c-0.9346,4.2783-4.8008,7.3833-9.1934,7.3833S23.7412,27.7349,22.8037,23.4399z    M35.4108,32.3013c-0.3331,1.6065-1.7269,2.7787-3.4108,2.7787c-1.6901,0-3.0879-1.1808-3.4134-2.7797   C29.673,32.6452,30.819,32.8398,32,32.8398C33.1801,32.8398,34.3251,32.6455,35.4108,32.3013z M15,41c0-4.4111,3.5889-8,8-8h3.6938   c0.6265,2.3779,2.7608,4.0801,5.3062,4.0801c2.5395,0,4.671-1.694,5.3043-4.0801H41c4.4111,0,8,3.5889,8,8v8h-3V39H18v10h-3V41z    M30,41h4v6.3818l-2-1.001l-2,1.001V41z M17,57c-1.1025,0-2-0.8975-2-2v-4h3v6H17z M20,57v-6V41h8v9.6182l4-2.001l4,2.001V41h8v10   v6H20z M49,55c0,1.1025-0.8975,2-2,2h-1v-6h3V55z"/></g><text x="0" y="79" fill="#000000" font-size="5px" font-weight="bold" font-family="'Helvetica Neue', Helvetica, Arial-Unicode, Arial, Sans-serif">Created by BaristaIcon</text><text x="0" y="84" fill="#000000" font-size="5px" font-weight="bold" font-family="'Helvetica Neue', Helvetica, Arial-Unicode, Arial, Sans-serif">from the Noun Project</text></svg>